<svg xmlns="http://www.w3.org/2000/svg" version="1.1" xmlns:xlink="http://www.w3.org/1999/xlink" xmlns:svgjs="http://svgjs.dev/svgjs" width="2000" height="1030" viewBox="0 0 2000 1030"><g transform="matrix(1,0,0,1,-1.2121212121212466,1.6306681186521246)"><svg viewBox="0 0 396 204" data-background-color="#fce44d" preserveAspectRatio="xMidYMid meet" height="1030" width="2000" xmlns="http://www.w3.org/2000/svg" xmlns:xlink="http://www.w3.org/1999/xlink"><g id="tight-bounds" transform="matrix(1,0,0,1,0.2400000000000091,-0.025697807464354128)"><svg viewBox="0 0 395.52 204.0513956149287" height="204.0513956149287" width="395.52"><g><svg viewBox="0 0 395.52 204.0513956149287" height="204.0513956149287" width="395.52"><g><svg viewBox="0 0 395.52 204.0513956149287" height="204.0513956149287" width="395.52"><g transform="matrix(1,0,0,1,0,140.06431021534164)"><svg viewBox="0 0 395.52 63.98708539958707" height="63.98708539958707" width="395.52"><g id="textblocktransform"><svg viewBox="0 0 395.52 63.98708539958707" height="63.98708539958707" width="395.52" id="textblock"><g><svg viewBox="0 0 395.52 31.42666845421638" height="31.42666845421638" width="395.52"><g transform="matrix(1,0,0,1,0,0)"><svg width="395.52" viewBox="1.3928571428571428 -37.6 479.47714285714284 38.1" height="31.42666845421638" data-palette-color="#111111"><path d="M24.75-27.75L24.75-27.75Q23.75-28.85 22.28-29.75 20.8-30.65 17.8-30.65L17.8-30.65Q14.85-30.65 13.5-29.68 12.15-28.7 12.15-27.4L12.15-27.4Q12.15-26.85 12.45-26.28 12.75-25.7 13.53-25.15 14.3-24.6 15.75-24.25L15.75-24.25 23.85-22.05Q28.55-20.8 30.7-17.95 32.85-15.1 32.85-11.35L32.85-11.35Q32.85-7.75 30.98-5.08 29.1-2.4 25.65-0.95 22.2 0.5 17.4 0.5L17.4 0.5Q13.85 0.5 10.73-0.3 7.6-1.1 5.23-2.58 2.85-4.05 1.65-6.05L1.65-6.05Q1.35-6.55 1.4-6.88 1.45-7.2 1.95-7.6L1.95-7.6 6.45-10.7Q7.1-11.15 7.53-11.08 7.95-11 8.2-10.65L8.2-10.65Q9.35-9.15 10.5-8.22 11.65-7.3 13.13-6.88 14.6-6.45 16.65-6.45L16.65-6.45Q19.65-6.45 21.45-7.33 23.25-8.2 23.25-9.95L23.25-9.95Q23.25-10.65 22.88-11.28 22.5-11.9 21.73-12.4 20.95-12.9 19.6-13.25L19.6-13.25 12-15.25Q9.05-16.05 6.95-17.65 4.85-19.25 3.73-21.4 2.6-23.55 2.6-26.05L2.6-26.05Q2.6-29.25 4.42-31.88 6.25-34.5 9.6-36.05 12.95-37.6 17.5-37.6L17.5-37.6Q20.4-37.6 23.03-36.95 25.65-36.3 27.73-35.1 29.8-33.9 31-32.3L31-32.3Q31.2-31.95 31.33-31.6 31.45-31.25 31-30.9L31-30.9 26.1-27.35Q25.8-27.1 25.53-27.18 25.25-27.25 24.75-27.75L24.75-27.75ZM68.1-14.2L68.1-14.2Q68.1-8.7 66.2-5.48 64.3-2.25 60.8-0.88 57.3 0.5 52.6 0.5L52.6 0.5Q46.85 0.5 43.45-1.28 40.05-3.05 38.57-6.58 37.1-10.1 37.1-15.2L37.1-15.2 37.1-36.05Q37.1-37.1 38-37.1L38-37.1 46.35-37.1Q47.2-37.1 47.2-36.15L47.2-36.15 47.2-14Q47.2-10.05 48.82-8.35 50.45-6.65 53.35-6.65L53.35-6.65Q55.15-6.65 56.62-7.35 58.1-8.05 58.92-9.7 59.75-11.35 59.75-14.15L59.75-14.15 59.75-36.05Q59.75-37.1 60.65-37.1L60.65-37.1 67.3-37.1Q68.1-37.1 68.1-36.15L68.1-36.15 68.1-14.2ZM105.2-25.3L105.2-25.3Q105.2-21.65 103.47-19.05 101.75-16.45 98.7-15.08 95.65-13.7 91.55-13.7L91.55-13.7 84.4-13.7Q83.85-13.7 83.85-13.2L83.85-13.2 83.85-1.3Q83.85 0 82.35 0L82.35 0 74.9 0Q74.25 0 74-0.28 73.75-0.55 73.75-1.15L73.75-1.15 73.75-36.05Q73.75-37.1 74.6-37.1L74.6-37.1 90.4-37.1Q94.5-37.1 97.85-35.83 101.2-34.55 103.2-31.93 105.2-29.3 105.2-25.3L105.2-25.3ZM94.9-25.45L94.9-25.45Q94.9-26.9 94.22-27.9 93.55-28.9 92.4-29.43 91.25-29.95 89.8-29.95L89.8-29.95 84.9-29.95Q83.85-29.95 83.85-28.95L83.85-28.95 83.85-21.9Q83.85-20.9 84.6-20.9L84.6-20.9 90.1-20.9Q92.3-20.9 93.6-22.15 94.9-23.4 94.9-25.45L94.9-25.45ZM141.34-25.3L141.34-25.3Q141.34-21.65 139.62-19.05 137.89-16.45 134.84-15.08 131.79-13.7 127.69-13.7L127.69-13.7 120.54-13.7Q119.99-13.7 119.99-13.2L119.99-13.2 119.99-1.3Q119.99 0 118.49 0L118.49 0 111.04 0Q110.39 0 110.14-0.28 109.89-0.55 109.89-1.15L109.89-1.15 109.89-36.05Q109.89-37.1 110.74-37.1L110.74-37.1 126.54-37.1Q130.64-37.1 133.99-35.83 137.34-34.55 139.34-31.93 141.34-29.3 141.34-25.3L141.34-25.3ZM131.04-25.45L131.04-25.45Q131.04-26.9 130.37-27.9 129.69-28.9 128.54-29.43 127.39-29.95 125.94-29.95L125.94-29.95 121.04-29.95Q119.99-29.95 119.99-28.95L119.99-28.95 119.99-21.9Q119.99-20.9 120.74-20.9L120.74-20.9 126.24-20.9Q128.44-20.9 129.74-22.15 131.04-23.4 131.04-25.45L131.04-25.45ZM146.04-36.05L146.04-36.05Q146.04-37.1 146.89-37.1L146.89-37.1 155.29-37.1Q156.14-37.1 156.14-36.15L156.14-36.15 156.14-8Q156.14-7.35 156.69-7.35L156.69-7.35 172.19-7.35Q173.24-7.35 173.24-6.5L173.24-6.5 173.24-1Q173.24-0.6 172.97-0.3 172.69 0 172.09 0L172.09 0 147.24 0Q146.54 0 146.29-0.28 146.04-0.55 146.04-1.15L146.04-1.15 146.04-36.05ZM177.79-36.05L177.79-36.05Q177.79-37.1 178.64-37.1L178.64-37.1 204.79-37.1Q205.59-37.1 205.59-36.15L205.59-36.15 205.59-30.95Q205.59-29.75 204.39-29.75L204.39-29.75 188.94-29.75Q187.89-29.75 187.89-28.85L187.89-28.85 187.89-23.2Q187.89-22.25 188.69-22.25L188.69-22.25 198.44-22.25Q199.39-22.25 199.39-21.35L199.39-21.35 199.39-15.8Q199.39-15.5 199.21-15.28 199.04-15.05 198.59-15.05L198.59-15.05 188.64-15.05Q187.89-15.05 187.89-14.35L187.89-14.35 187.89-8Q187.89-7.35 188.44-7.35L188.44-7.35 205.09-7.35Q206.09-7.35 206.09-6.5L206.09-6.5 206.09-1Q206.09-0.6 205.84-0.3 205.59 0 205.04 0L205.04 0 178.99 0Q177.79 0 177.79-1.15L177.79-1.15 177.79-36.05ZM212.09 0L212.09 0Q210.94 0 210.94-1.3L210.94-1.3 210.94-36.05Q210.94-37.1 211.89-37.1L211.89-37.1 224.14-37.1Q224.74-37.1 224.99-36.95 225.24-36.8 225.44-36.25L225.44-36.25 231.74-17.95Q231.89-17.55 232.09-17.57 232.29-17.6 232.44-17.95L232.44-17.95 238.29-35.8Q238.69-37.1 239.54-37.1L239.54-37.1 252.19-37.1Q253.04-37.1 253.04-36.15L253.04-36.15 253.04-1.3Q253.04 0 251.59 0L251.59 0 244.14 0Q243.44 0 243.19-0.28 242.94-0.55 242.94-1.15L242.94-1.15 242.94-24.75Q242.94-25.1 242.74-25.1 242.54-25.1 242.39-24.7L242.39-24.7 234.49-0.85Q234.14 0 233.34 0L233.34 0 228.64 0Q227.74 0 227.44-0.85L227.44-0.85 219.54-24.35Q219.39-24.85 219.21-24.8 219.04-24.75 219.04-24.3L219.04-24.3 219.04-1Q219.04-0.4 218.84-0.2 218.64 0 217.99 0L217.99 0 212.09 0ZM259.13-36.05L259.13-36.05Q259.13-37.1 259.98-37.1L259.98-37.1 286.13-37.1Q286.93-37.1 286.93-36.15L286.93-36.15 286.93-30.95Q286.93-29.75 285.73-29.75L285.73-29.75 270.28-29.75Q269.23-29.75 269.23-28.85L269.23-28.85 269.23-23.2Q269.23-22.25 270.03-22.25L270.03-22.25 279.78-22.25Q280.73-22.25 280.73-21.35L280.73-21.35 280.73-15.8Q280.73-15.5 280.56-15.28 280.38-15.05 279.93-15.05L279.93-15.05 269.98-15.05Q269.23-15.05 269.23-14.35L269.23-14.35 269.23-8Q269.23-7.35 269.78-7.35L269.78-7.35 286.43-7.35Q287.43-7.35 287.43-6.5L287.43-6.5 287.43-1Q287.43-0.6 287.18-0.3 286.93 0 286.38 0L286.38 0 260.33 0Q259.13 0 259.13-1.15L259.13-1.15 259.13-36.05ZM317.08-37.1L323.48-37.1Q324.23-37.1 324.23-36.3L324.23-36.3 324.23-0.85Q324.23-0.45 323.93-0.23 323.63 0 323.18 0L323.18 0 317.13 0Q316.78 0 316.5-0.1 316.23-0.2 315.83-0.7L315.83-0.7 301.03-21.1Q300.83-21.4 300.68-21.35 300.53-21.3 300.53-21.05L300.53-21.05 300.53-1Q300.58 0 299.43 0L299.43 0 293.38 0Q292.28 0 292.28-0.95L292.28-0.95 292.28-36.05Q292.28-37.1 293.28-37.1L293.28-37.1 300.43-37.1Q301.03-37.1 301.33-36.95 301.63-36.8 301.98-36.3L301.98-36.3 315.28-17.55Q315.63-17.1 315.86-17.15 316.08-17.2 316.08-17.75L316.08-17.75 316.08-36.15Q316.08-37.1 317.08-37.1L317.08-37.1ZM328.78-30.75L328.78-36.05Q328.78-36.5 329.03-36.8 329.28-37.1 329.88-37.1L329.88-37.1 359.23-37.1Q359.78-37.1 360.05-36.8 360.33-36.5 360.33-36.05L360.33-36.05 360.33-30.75Q360.33-29.9 359.33-29.9L359.33-29.9 350.23-29.9Q349.63-29.9 349.63-29.4L349.63-29.4 349.63-1Q349.63 0 348.78 0L348.78 0 340.38 0Q339.53 0 339.53-0.95L339.53-0.95 339.53-29.2Q339.53-29.9 339.03-29.9L339.03-29.9 329.83-29.9Q328.78-29.9 328.78-30.75L328.78-30.75ZM396.02-15.3L385.87-15.3Q385.17-15.3 385.17-14.65L385.17-14.65 385.17-1.3Q385.17 0 383.67 0L383.67 0 376.27 0Q375.57 0 375.32-0.28 375.07-0.55 375.07-1.15L375.07-1.15 375.07-36.05Q375.07-37.1 375.92-37.1L375.92-37.1 384.32-37.1Q385.17-37.1 385.17-36.15L385.17-36.15 385.17-23.95Q385.17-23 385.97-23L385.97-23 395.92-23Q396.72-23 396.72-23.95L396.72-23.95 396.72-36.15Q396.72-37.1 397.57-37.1L397.57-37.1 405.97-37.1Q406.82-37.1 406.82-36.05L406.82-36.05 406.82-1.15Q406.82-0.55 406.57-0.28 406.32 0 405.62 0L405.62 0 398.22 0Q396.72 0 396.72-1.3L396.72-1.3 396.72-14.65Q396.72-15.3 396.02-15.3L396.02-15.3ZM443.47-14.2L443.47-14.2Q443.47-8.7 441.57-5.48 439.67-2.25 436.17-0.88 432.67 0.5 427.97 0.5L427.97 0.5Q422.22 0.5 418.82-1.28 415.42-3.05 413.94-6.58 412.47-10.1 412.47-15.2L412.47-15.2 412.47-36.05Q412.47-37.1 413.37-37.1L413.37-37.1 421.72-37.1Q422.57-37.1 422.57-36.15L422.57-36.15 422.57-14Q422.57-10.05 424.19-8.35 425.82-6.65 428.72-6.65L428.72-6.65Q430.52-6.65 432-7.35 433.47-8.05 434.3-9.7 435.12-11.35 435.12-14.15L435.12-14.15 435.12-36.05Q435.12-37.1 436.02-37.1L436.02-37.1 442.67-37.1Q443.47-37.1 443.47-36.15L443.47-36.15 443.47-14.2ZM450.12 0L450.12 0Q449.67 0 449.39-0.3 449.12-0.6 449.12-1L449.12-1 449.12-35.9Q449.12-36.45 449.42-36.77 449.72-37.1 450.22-37.1L450.22-37.1 464.52-37.1Q472.02-37.1 475.99-34.63 479.97-32.15 479.97-27.35L479.97-27.35Q479.97-24.65 478.54-22.78 477.12-20.9 473.42-19.25L473.42-19.25Q473.32-19.2 473.32-19.07 473.32-18.95 473.42-18.9L473.42-18.9Q477.47-17.5 479.17-15.43 480.87-13.35 480.87-10.05L480.87-10.05Q480.87-4.95 476.97-2.48 473.07 0 465.22 0L465.22 0 450.12 0ZM459.97-6.75L464.97-6.75Q467.67-6.75 469.02-8.03 470.37-9.3 470.37-11.1L470.37-11.1Q470.37-12.4 469.72-13.35 469.07-14.3 467.92-14.8 466.77-15.3 465.27-15.3L465.27-15.3 460.27-15.3Q459.22-15.3 459.22-14.3L459.22-14.3 459.22-7.75Q459.22-6.75 459.97-6.75L459.97-6.75ZM459.97-22.2L465.27-22.2Q466.27-22.2 467.12-22.48 467.97-22.75 468.62-23.25 469.27-23.75 469.62-24.48 469.97-25.2 469.97-26.2L469.97-26.2Q469.97-28.15 468.52-29.25 467.07-30.35 464.87-30.35L464.87-30.35 460.27-30.35Q459.22-30.35 459.22-29.45L459.22-29.45 459.22-23.25Q459.22-22.2 459.97-22.2L459.97-22.2Z" opacity="1" transform="matrix(1,0,0,1,0,0)" fill="#ffffff" class="wordmark-text-0" data-fill-palette-color="primary" id="text-0"></path></svg></g></svg></g><g transform="matrix(1,0,0,1,76.93914223307425,38.845750636213964)"><svg viewBox="0 0 241.64171553385148 25.141334763373106" height="25.141334763373106" width="241.64171553385148"><g transform="matrix(1,0,0,1,0,0)"><svg width="241.64171553385148" viewBox="3.05 -40.5 483.39 50.3" height="25.141334763373106" data-palette-color="#111111"><path d="M15.15 0L3.05 0 3.05-40.5 13.3-40.5Q15.95-40.5 18.2-40.05 20.45-39.6 22.18-38.45 23.9-37.3 24.83-35.27 25.75-33.25 25.75-30L25.75-30Q25.75-27.55 25.05-25.83 24.35-24.1 23.05-23.1 21.75-22.1 19.85-21.75L19.85-21.75Q22.2-21.4 23.8-20.15 25.4-18.9 26.2-16.85 27-14.8 27-11.9L27-11.9Q27-8.85 26.23-6.6 25.45-4.35 23.95-2.9 22.45-1.45 20.25-0.73 18.05 0 15.15 0L15.15 0ZM11.3-18.6L11.3-5.8 13.6-5.8Q16.7-5.8 17.88-7.35 19.05-8.9 19.05-12L19.05-12Q19.05-14.4 18.5-15.83 17.95-17.25 16.73-17.93 15.5-18.6 13.45-18.6L13.45-18.6 11.3-18.6ZM11.3-34.9L11.3-24.15 13.35-24.15Q15.5-24.15 16.6-24.78 17.7-25.4 18.13-26.68 18.55-27.95 18.55-29.8L18.55-29.8Q18.55-31.65 17.93-32.77 17.3-33.9 16.03-34.4 14.75-34.9 12.8-34.9L12.8-34.9 11.3-34.9ZM40.45 0.5L40.45 0.5Q37.35 0.5 35.15-0.63 32.95-1.75 31.82-3.9 30.7-6.05 30.7-9.25L30.7-9.25 30.7-19.65Q30.7-22.85 31.82-25 32.95-27.15 35.15-28.28 37.35-29.4 40.45-29.4L40.45-29.4Q43.55-29.4 45.75-28.28 47.95-27.15 49.1-25 50.25-22.85 50.25-19.65L50.25-19.65 50.25-9.25Q50.25-6.05 49.1-3.9 47.95-1.75 45.75-0.63 43.55 0.5 40.45 0.5ZM40.5-4.6L40.5-4.6Q41.45-4.6 41.95-5.13 42.45-5.65 42.6-6.58 42.75-7.5 42.75-8.7L42.75-8.7 42.75-20.15Q42.75-21.4 42.6-22.3 42.45-23.2 41.95-23.75 41.45-24.3 40.5-24.3L40.5-24.3Q39.55-24.3 39.05-23.75 38.55-23.2 38.37-22.3 38.2-21.4 38.2-20.15L38.2-20.15 38.2-8.7Q38.2-7.5 38.37-6.58 38.55-5.65 39.05-5.13 39.55-4.6 40.5-4.6ZM64 0.5L64 0.5Q60.9 0.5 58.7-0.63 56.5-1.75 55.37-3.9 54.25-6.05 54.25-9.25L54.25-9.25 54.25-19.65Q54.25-22.85 55.37-25 56.5-27.15 58.7-28.28 60.9-29.4 64-29.4L64-29.4Q67.09-29.4 69.3-28.28 71.5-27.15 72.65-25 73.8-22.85 73.8-19.65L73.8-19.65 73.8-9.25Q73.8-6.05 72.65-3.9 71.5-1.75 69.3-0.63 67.09 0.5 64 0.5ZM64.05-4.6L64.05-4.6Q65-4.6 65.5-5.13 66-5.65 66.15-6.58 66.3-7.5 66.3-8.7L66.3-8.7 66.3-20.15Q66.3-21.4 66.15-22.3 66-23.2 65.5-23.75 65-24.3 64.05-24.3L64.05-24.3Q63.1-24.3 62.6-23.75 62.1-23.2 61.92-22.3 61.75-21.4 61.75-20.15L61.75-20.15 61.75-8.7Q61.75-7.5 61.92-6.58 62.1-5.65 62.6-5.13 63.1-4.6 64.05-4.6ZM86.79 0.5L86.79 0.5Q83.04 0.5 80.62-1.33 78.19-3.15 76.84-6.95L76.84-6.95 82.14-9.15Q82.89-7.05 83.94-5.88 84.99-4.7 86.39-4.7L86.39-4.7Q87.44-4.7 87.97-5.18 88.49-5.65 88.49-6.5L88.49-6.5Q88.49-7.7 87.69-8.65 86.89-9.6 84.84-11.3L84.84-11.3 82.14-13.6Q80.04-15.4 78.77-17.18 77.49-18.95 77.49-21.6L77.49-21.6Q77.49-23.95 78.67-25.7 79.84-27.45 81.82-28.43 83.79-29.4 86.09-29.4L86.09-29.4Q89.64-29.4 91.92-27.38 94.19-25.35 94.99-21.9L94.99-21.9 90.09-19.7Q89.79-20.8 89.29-21.78 88.79-22.75 88.02-23.4 87.24-24.05 86.29-24.05L86.29-24.05Q85.39-24.05 84.84-23.5 84.29-22.95 84.29-22.1L84.29-22.1Q84.29-21.2 85.22-20.2 86.14-19.2 87.79-17.8L87.79-17.8 90.49-15.4Q91.69-14.35 92.84-13.18 93.99-12 94.74-10.58 95.49-9.15 95.49-7.3L95.49-7.3Q95.49-4.8 94.29-3.05 93.09-1.3 91.12-0.4 89.14 0.5 86.79 0.5ZM107.69 0.3L107.69 0.3Q104.69 0.3 102.99-0.63 101.29-1.55 100.64-3.3 99.99-5.05 99.99-7.55L99.99-7.55 99.99-23.95 97.14-23.95 97.14-28.9 99.99-28.9 99.99-37.65 107.64-37.65 107.64-28.9 111.84-28.9 111.84-23.95 107.64-23.95 107.64-8.25Q107.64-6.9 108.32-6.33 108.99-5.75 110.19-5.75L110.19-5.75Q110.79-5.75 111.34-5.83 111.89-5.9 112.34-5.95L112.34-5.95 112.34-0.05Q111.64 0.05 110.34 0.18 109.04 0.3 107.69 0.3ZM130.84 8.15L129.24 8.15 129.24 2.85Q130.89 2.85 131.94 2.65 132.99 2.45 133.51 1.93 134.04 1.4 134.04 0.45L134.04 0.45Q134.04-0.3 133.71-1.6 133.39-2.9 132.99-4.5L132.99-4.5 126.39-28.9 133.54-28.9 137.24-11.15 140.24-28.9 147.44-28.9 140.74 0.9Q140.14 3.7 138.76 5.28 137.39 6.85 135.41 7.5 133.44 8.15 130.84 8.15L130.84 8.15ZM159.68 0.5L159.68 0.5Q156.58 0.5 154.38-0.63 152.18-1.75 151.06-3.9 149.93-6.05 149.93-9.25L149.93-9.25 149.93-19.65Q149.93-22.85 151.06-25 152.18-27.15 154.38-28.28 156.58-29.4 159.68-29.4L159.68-29.4Q162.78-29.4 164.98-28.28 167.18-27.15 168.33-25 169.48-22.85 169.48-19.65L169.48-19.65 169.48-9.25Q169.48-6.05 168.33-3.9 167.18-1.75 164.98-0.63 162.78 0.5 159.68 0.5ZM159.73-4.6L159.73-4.6Q160.68-4.6 161.18-5.13 161.68-5.65 161.83-6.58 161.98-7.5 161.98-8.7L161.98-8.7 161.98-20.15Q161.98-21.4 161.83-22.3 161.68-23.2 161.18-23.75 160.68-24.3 159.73-24.3L159.73-24.3Q158.78-24.3 158.28-23.75 157.78-23.2 157.61-22.3 157.43-21.4 157.43-20.15L157.43-20.15 157.43-8.7Q157.43-7.5 157.61-6.58 157.78-5.65 158.28-5.13 158.78-4.6 159.73-4.6ZM178.98 0.5L178.98 0.5Q177.23 0.5 176.06-0.4 174.88-1.3 174.33-2.8 173.78-4.3 173.78-6.1L173.78-6.1 173.78-28.9 181.33-28.9 181.33-7.2Q181.33-6 181.73-5.38 182.13-4.75 183.18-4.75L183.18-4.75Q183.78-4.75 184.46-5.08 185.13-5.4 185.83-5.85L185.83-5.85 185.83-28.9 193.38-28.9 193.38 0 185.83 0 185.83-2.7Q184.33-1.25 182.61-0.38 180.88 0.5 178.98 0.5ZM206.23 0L198.68 0 198.68-28.9 206.23-28.9 206.23-24.25Q207.68-26.8 209.1-28.03 210.53-29.25 212.48-29.25L212.48-29.25Q212.83-29.25 213.1-29.23 213.38-29.2 213.63-29.1L213.63-29.1 213.63-21.5Q213.08-21.75 212.38-21.93 211.68-22.1 210.93-22.1L210.93-22.1Q209.53-22.1 208.38-21.38 207.23-20.65 206.23-19.3L206.23-19.3 206.23 0ZM238.57 9.8L238.57 9.8Q235.42 9.8 233.1 9.15 230.77 8.5 229.47 7.23 228.17 5.95 228.17 3.95L228.17 3.95Q228.17 2.6 228.75 1.53 229.32 0.45 230.35-0.35 231.37-1.15 232.57-1.75L232.57-1.75Q230.82-2.25 229.85-3.3 228.87-4.35 228.87-6L228.87-6Q228.87-7.75 229.72-9 230.57-10.25 232.07-11.55L232.07-11.55Q230.57-12.8 229.82-14.65 229.07-16.5 229.07-19.3L229.07-19.3Q229.07-22.55 230.22-24.8 231.37-27.05 233.6-28.23 235.82-29.4 238.97-29.4L238.97-29.4Q241.22-29.4 242.87-28.78 244.52-28.15 245.62-26.95L245.62-26.95Q246.12-27.7 247.07-28.53 248.02-29.35 249.22-29.95L249.22-29.95 250.22-30.4 252.02-26.6Q251.52-26.45 250.65-26.1 249.77-25.75 248.9-25.35 248.02-24.95 247.42-24.6L247.42-24.6Q247.92-23.55 248.22-22.1 248.52-20.65 248.52-19.2L248.52-19.2Q248.52-16.15 247.47-13.9 246.42-11.65 244.32-10.45 242.22-9.25 238.97-9.25L238.97-9.25Q237.72-9.25 236.6-9.45 235.47-9.65 234.47-9.95L234.47-9.95Q234.17-9.55 233.95-9.08 233.72-8.6 233.72-8.1L233.72-8.1Q233.72-7.5 234.3-7.15 234.87-6.8 236.37-6.65L236.37-6.65 243.32-5.9Q246.97-5.5 248.7-3.58 250.42-1.65 250.42 1.55L250.42 1.55Q250.42 4.2 249.22 6.05 248.02 7.9 245.4 8.85 242.77 9.8 238.57 9.8ZM239.47 4.25L239.47 4.25Q242.22 4.25 243.67 3.75 245.12 3.25 245.12 1.8L245.12 1.8Q245.12 1.1 244.75 0.63 244.37 0.15 243.45-0.15 242.52-0.45 240.87-0.6L240.87-0.6 235.67-1.1Q235.17-0.7 234.77-0.25 234.37 0.2 234.12 0.7 233.87 1.2 233.87 1.8L233.87 1.8Q233.87 3 235.15 3.63 236.42 4.25 239.47 4.25ZM238.97-13.85L238.97-13.85Q239.77-13.85 240.27-14.15 240.77-14.45 241.02-15.1 241.27-15.75 241.37-16.8 241.47-17.85 241.47-19.3L241.47-19.3Q241.47-20.75 241.37-21.78 241.27-22.8 241.02-23.48 240.77-24.15 240.27-24.45 239.77-24.75 238.97-24.75L238.97-24.75Q238.22-24.75 237.7-24.45 237.17-24.15 236.92-23.5 236.67-22.85 236.57-21.8 236.47-20.75 236.47-19.3L236.47-19.3Q236.47-17.9 236.57-16.88 236.67-15.85 236.92-15.18 237.17-14.5 237.67-14.18 238.17-13.85 238.97-13.85ZM259.67 0.5L259.67 0.5Q257.62 0.5 256.15-0.55 254.67-1.6 253.92-3.2 253.17-4.8 253.17-6.5L253.17-6.5Q253.17-9.2 254.22-11.05 255.27-12.9 256.97-14.15 258.67-15.4 260.77-16.3 262.87-17.2 264.97-17.95L264.97-17.95 264.97-20.65Q264.97-21.6 264.82-22.3 264.67-23 264.25-23.38 263.82-23.75 263.02-23.75L263.02-23.75Q262.22-23.75 261.8-23.43 261.37-23.1 261.2-22.48 261.02-21.85 260.97-21.1L260.97-21.1 260.82-19.1 253.67-19.4Q253.92-24.5 256.35-26.95 258.77-29.4 263.67-29.4L263.67-29.4Q268.07-29.4 270.17-26.98 272.27-24.55 272.27-20.6L272.27-20.6 272.27-7.15Q272.27-5.45 272.35-4.13 272.42-2.8 272.55-1.78 272.67-0.75 272.77 0L272.77 0 265.97 0Q265.82-1.1 265.62-2.4 265.42-3.7 265.32-4.15L265.32-4.15Q264.82-2.35 263.42-0.93 262.02 0.5 259.67 0.5ZM262.42-4.85L262.42-4.85Q262.97-4.85 263.47-5.1 263.97-5.35 264.35-5.75 264.72-6.15 264.97-6.5L264.97-6.5 264.97-14.45Q263.92-13.8 263.02-13.18 262.12-12.55 261.47-11.8 260.82-11.05 260.47-10.15 260.12-9.25 260.12-8.1L260.12-8.1Q260.12-6.6 260.72-5.73 261.32-4.85 262.42-4.85ZM284.82 0L277.27 0 277.27-28.9 284.82-28.9 284.82 0ZM284.82-33.65L277.22-33.65 277.22-39.3 284.82-39.3 284.82-33.65ZM297.57 0L290.02 0 290.02-28.9 297.57-28.9 297.57-26Q299.12-27.55 300.84-28.48 302.57-29.4 304.52-29.4L304.52-29.4Q306.32-29.4 307.44-28.5 308.57-27.6 309.12-26.13 309.67-24.65 309.67-22.8L309.67-22.8 309.67 0 302.17 0 302.17-21.55Q302.17-22.75 301.79-23.35 301.42-23.95 300.37-23.95L300.37-23.95Q299.77-23.95 299.04-23.63 298.32-23.3 297.57-22.75L297.57-22.75 297.57 0ZM323.06 0.5L323.06 0.5Q319.31 0.5 316.89-1.33 314.46-3.15 313.11-6.95L313.11-6.95 318.41-9.15Q319.16-7.05 320.21-5.88 321.26-4.7 322.66-4.7L322.66-4.7Q323.71-4.7 324.24-5.18 324.76-5.65 324.76-6.5L324.76-6.5Q324.76-7.7 323.96-8.65 323.16-9.6 321.11-11.3L321.11-11.3 318.41-13.6Q316.31-15.4 315.04-17.18 313.76-18.95 313.76-21.6L313.76-21.6Q313.76-23.95 314.94-25.7 316.11-27.45 318.09-28.43 320.06-29.4 322.36-29.4L322.36-29.4Q325.91-29.4 328.19-27.38 330.46-25.35 331.26-21.9L331.26-21.9 326.36-19.7Q326.06-20.8 325.56-21.78 325.06-22.75 324.29-23.4 323.51-24.05 322.56-24.05L322.56-24.05Q321.66-24.05 321.11-23.5 320.56-22.95 320.56-22.1L320.56-22.1Q320.56-21.2 321.49-20.2 322.41-19.2 324.06-17.8L324.06-17.8 326.76-15.4Q327.96-14.35 329.11-13.18 330.26-12 331.01-10.58 331.76-9.15 331.76-7.3L331.76-7.3Q331.76-4.8 330.56-3.05 329.36-1.3 327.39-0.4 325.41 0.5 323.06 0.5ZM357.11 0L350.66 0 346.31-28.9 352.61-28.9 354.91-11.45 357.51-28.9 363.01-28.9 365.36-11.15 367.96-28.9 373.86-28.9 369.41 0 362.96 0 360.16-17.15 357.11 0ZM385.21 0L377.66 0 377.66-28.9 385.21-28.9 385.21 0ZM385.21-33.65L377.61-33.65 377.61-39.3 385.21-39.3 385.21-33.65ZM399.05 0.3L399.05 0.3Q396.05 0.3 394.35-0.63 392.65-1.55 392-3.3 391.35-5.05 391.35-7.55L391.35-7.55 391.35-23.95 388.5-23.95 388.5-28.9 391.35-28.9 391.35-37.65 399-37.65 399-28.9 403.2-28.9 403.2-23.95 399-23.95 399-8.25Q399-6.9 399.68-6.33 400.35-5.75 401.55-5.75L401.55-5.75Q402.15-5.75 402.7-5.83 403.25-5.9 403.7-5.95L403.7-5.95 403.7-0.05Q403 0.05 401.7 0.18 400.4 0.3 399.05 0.3ZM415.15 0L407.65 0 407.65-40.5 415.15-40.5 415.15-26.25Q416.75-27.8 418.5-28.6 420.25-29.4 422.3-29.4L422.3-29.4Q424.05-29.4 425.18-28.5 426.3-27.6 426.85-26.13 427.4-24.65 427.4-22.8L427.4-22.8 427.4 0 419.85 0 419.85-21.55Q419.85-22.75 419.5-23.35 419.15-23.95 418.1-23.95L418.1-23.95Q417.5-23.95 416.73-23.63 415.95-23.3 415.15-22.75L415.15-22.75 415.15 0ZM449.75 0.5L449.75 0.5Q448 0.5 446.82-0.4 445.65-1.3 445.1-2.8 444.55-4.3 444.55-6.1L444.55-6.1 444.55-28.9 452.1-28.9 452.1-7.2Q452.1-6 452.5-5.38 452.9-4.75 453.95-4.75L453.95-4.75Q454.55-4.75 455.22-5.08 455.9-5.4 456.6-5.85L456.6-5.85 456.6-28.9 464.15-28.9 464.15 0 456.6 0 456.6-2.7Q455.1-1.25 453.37-0.38 451.65 0.5 449.75 0.5ZM477.74 0.5L477.74 0.5Q473.99 0.5 471.57-1.33 469.14-3.15 467.79-6.95L467.79-6.95 473.09-9.15Q473.84-7.05 474.89-5.88 475.94-4.7 477.34-4.7L477.34-4.7Q478.39-4.7 478.92-5.18 479.44-5.65 479.44-6.5L479.44-6.5Q479.44-7.7 478.64-8.65 477.84-9.6 475.79-11.3L475.79-11.3 473.09-13.6Q470.99-15.4 469.72-17.18 468.44-18.95 468.44-21.6L468.44-21.6Q468.44-23.95 469.62-25.7 470.79-27.45 472.77-28.43 474.74-29.4 477.04-29.4L477.04-29.4Q480.59-29.4 482.87-27.38 485.14-25.35 485.94-21.9L485.94-21.9 481.04-19.7Q480.74-20.8 480.24-21.78 479.74-22.75 478.97-23.4 478.19-24.05 477.24-24.05L477.24-24.05Q476.34-24.05 475.79-23.5 475.24-22.95 475.24-22.1L475.24-22.1Q475.24-21.2 476.17-20.2 477.09-19.2 478.74-17.8L478.74-17.8 481.44-15.4Q482.64-14.35 483.79-13.18 484.94-12 485.69-10.58 486.44-9.15 486.44-7.3L486.44-7.3Q486.44-4.8 485.24-3.05 484.04-1.3 482.07-0.4 480.09 0.5 477.74 0.5Z" opacity="1" transform="matrix(1,0,0,1,0,0)" fill="#ffffff" class="slogan-text-1" data-fill-palette-color="secondary" id="text-1"></path></svg></g></svg></g></svg></g></svg></g><g transform="matrix(1,0,0,1,123.43738598332797,0)"><svg viewBox="0 0 148.64522803334404 132.64522803334404" height="132.64522803334404" width="148.64522803334404"><g><svg xmlns="http://www.w3.org/2000/svg" viewBox="16 16 480 480" x="8" y="0" height="132.64522803334404" width="132.64522803334404" class="icon-icon-0" data-fill-palette-color="accent" id="icon-0"><path d="M88 72H248a8 8 0 0 0 0-16H88a8 8 0 0 0 0 16Z" fill="#ffffff" data-fill-palette-color="accent"></path><path d="M448 228.128V201.869A23.943 23.943 0 0 0 456 184V168a24.028 24.028 0 0 0-24-24H352a24.028 24.028 0 0 0-24 24v16a23.943 23.943 0 0 0 8 17.869v26.259a72.047 72.047 0 0 0-23.279 13.639l7.273-185.454c0-0.1 0.006-0.209 0.006-0.313V24a8 8 0 0 0-8-8H24a8 8 0 0 0-8 8V56c0 0.1 0 0.209 0.006 0.313l16 408a8 8 0 0 0 5.7 7.35C41.014 472.656 119.476 496 176 496c46.876 0 98.206-16.012 116.21-22.168A40.037 40.037 0 0 0 328 496H456a40.045 40.045 0 0 0 40-40V296A72.114 72.114 0 0 0 448 228.128ZM344 168a8.009 8.009 0 0 1 8-8h80a8.009 8.009 0 0 1 8 8v16a8.009 8.009 0 0 1-8 8H352a8.009 8.009 0 0 1-8-8Zm8 40h80v16.455a72.383 72.383 0 0 0-8-0.455H360a72.383 72.383 0 0 0-8 0.455ZM304 448V312H480V448ZM176 480c-45.873 0-109.394-16.808-128.233-22.093L32.634 72H56a8 8 0 0 0 0-16H32.006L32 55.844V32H304V55.844l-0.006 0.156H280a8 8 0 0 0 0 16h23.366l-7.5 191.346A71.526 71.526 0 0 0 288 296V456c0 0.778 0.028 1.55 0.072 2.317C272 463.821 220.918 480 176 480Zm280 0H328a24.039 24.039 0 0 1-22.624-16H478.624A24.039 24.039 0 0 1 456 480ZM304 296a56.063 56.063 0 0 1 56-56h64a56.063 56.063 0 0 1 56 56Z" fill="#ffffff" data-fill-palette-color="accent"></path><path d="M432 352H400c-0.461 0-0.919 0.016-1.374 0.042V352a24 24 0 0 0-40.97-16.971l-11.309 11.309 0 0 0 0-11.31 11.309A24 24 0 0 0 368.97 391.6l8.2-8.2A24.038 24.038 0 0 0 400 400h32a24 24 0 0 0 0-48Zm-63.029-5.657a8 8 0 1 1 11.313 11.313l-5.657 5.657L363.314 352l5.657-5.656Zm-22.627 33.942a8.011 8.011 0 0 1 0-11.314L352 363.314l11.314 11.313-5.657 5.657A8.009 8.009 0 0 1 346.344 380.285ZM392 376a8.009 8.009 0 0 1 8-8h8v16h-8A8.009 8.009 0 0 1 392 376Zm40 8h-8V368h8a8 8 0 0 1 0 16Z" fill="#ffffff" data-fill-palette-color="accent"></path><path d="M408 416H376a8 8 0 0 0 0 16h32a8 8 0 0 0 0-16Z" fill="#ffffff" data-fill-palette-color="accent"></path><path d="M192 368a8 8 0 0 0 0-16H160a8 8 0 0 0 0 16Z" fill="#ffffff" data-fill-palette-color="accent"></path><path d="M224 384H128a8 8 0 0 0 0 16h96a8 8 0 0 0 0-16Z" fill="#ffffff" data-fill-palette-color="accent"></path><path d="M219.324 137.264A23.823 23.823 0 0 0 200.379 128H176a24 24 0 0 0 0 48h17.037c1.955 17.168 1.691 41.394-6.418 50.042A84.863 84.863 0 0 0 168 224c-16.75 0-32.523 4.911-44.221 13.235a40 40 0 1 0 0 69.53C135.477 315.089 151.25 320 168 320s32.523-4.911 44.221-13.235A39.989 39.989 0 0 0 232.006 312h0.338a39.184 39.184 0 0 0 28.385-12.484 41.29 41.29 0 0 0 11.265-28.845C271.454 210.8 234.98 157.431 219.324 137.264Zm29.764 151.274a23.538 23.538 0 0 1-24.662 6.247c0.61-0.855 1.2-1.722 1.739-2.61a8 8 0 0 0-13.649-8.35C205.019 296.081 187.545 304 168 304s-37.019-7.919-44.516-20.175a8 8 0 0 0-13.649 8.35c0.542 0.885 1.125 1.749 1.733 2.6a24 24 0 1 1 0-45.552c-0.608 0.852-1.191 1.716-1.733 2.6a8 8 0 1 0 13.649 8.35C130.981 247.919 148.455 240 168 240a63.219 63.219 0 0 1 29.822 7.049 8 8 0 1 0 7.566-14.1c-0.986-0.529-2-1.028-3.013-1.512 12.289-21.083 6.317-59.951 5.516-64.754A8 8 0 0 0 200 160H176a8 8 0 0 1 0-16h24.379a7.925 7.925 0 0 1 6.306 3.076c11.439 14.734 48.8 67.2 49.31 123.738A25.362 25.362 0 0 1 249.088 288.538Z" fill="#ffffff" data-fill-palette-color="accent"></path></svg></g></svg></g><g><rect width="123.43738598332797" height="2.834089393523078" y="128.81113863982097" x="272.082614016672" fill="#ffffff" data-fill-palette-color="accent"></rect><rect width="123.43738598332797" height="2.834089393523078" y="128.81113863982097" x="0" fill="#ffffff" data-fill-palette-color="accent"></rect><rect width="123.43738598332797" height="2.834089393523078" y="123.14295985277481" x="272.082614016672" fill="#ffffff" data-fill-palette-color="accent"></rect><rect width="123.43738598332797" height="2.834089393523078" y="123.14295985277481" x="0" fill="#ffffff" data-fill-palette-color="accent"></rect></g></svg></g></svg></g><defs></defs></svg><rect width="395.52" height="204.0513956149287" fill="none" stroke="none" visibility="hidden"></rect></g></svg></g></svg>